<svg width="314" height="36" viewBox="0 0 314 36" fill="none" xmlns="http://www.w3.org/2000/svg">
<path d="M21.4811 20.5691C22.3847 24.0912 21.869 27.6486 18.5849 29.9761C14.7719 32.6827 10.756 35.3276 5.60291 33.6216C5.06953 33.4453 4.43476 33.5423 3.84847 33.5775C0.286689 33.7803 -0.520002 31.7526 0.286689 28.3318C0.908238 25.6914 2.38937 23.2581 3.49141 20.7322C5.03867 17.1924 6.66969 13.688 8.11997 10.1086C9.14706 7.57386 9.90527 4.93338 10.8662 2.37225C11.0338 1.92262 11.5671 1.37601 12.0035 1.30107C16.9495 0.481156 21.8513 0.904338 26.4535 2.79543C30.8969 4.62041 31.9196 9.8132 28.8647 13.5778C27.8068 14.8826 26.7532 16.2138 25.541 17.3688C24.3419 18.5061 22.9446 19.4362 21.4855 20.5735L21.4811 20.5691ZM24.8842 8.00586C21.6971 7.77664 18.8935 7.54301 16.0899 7.41958C15.7196 7.40195 15.1818 7.8648 14.9658 8.24831C13.8594 10.1967 12.8367 12.1892 11.7787 14.1729C16.4558 16.1213 21.8646 13.0664 24.8842 8.00586ZM5.96438 28.4509C10.5444 27.8117 13.6875 25.3607 17.0773 23.5578C18.0647 23.0332 17.5446 21.9621 16.6012 21.8298C14.4368 21.5345 12.246 21.4551 10.0596 21.3846C9.75539 21.3758 9.33221 21.8607 9.14266 22.2177C8.15523 24.0736 7.22511 25.9647 5.96879 28.4509H5.96438Z" fill="white"/>
<path d="M79.4658 31.1221C76.8606 30.8532 74.1716 30.9017 71.6722 30.2361C68.5645 29.4074 67.5771 26.3569 69.3051 23.6812C71.4342 20.3795 73.7661 17.21 75.8908 13.9083C76.2964 13.2779 76.3845 12.2508 76.2258 11.4882C75.6925 8.95796 77.1427 7.0845 79.7127 7.48123C83.2348 8.02343 86.7657 8.62294 90.2129 9.50898C94.2728 10.5581 97.5613 14.3447 97.7861 17.7478C98.1432 23.0728 96.0405 26.4274 91.5971 28.8167C87.7179 30.9061 83.6712 31.153 79.4658 31.1265V31.1221ZM76.9047 24.2013C79.7391 24.2013 81.952 24.4173 84.1076 24.1528C87.2815 23.7605 90.1203 22.3896 92.32 20.018C92.6991 19.608 92.7476 18.3209 92.3949 17.8977C90.3804 15.482 87.2991 15.3321 84.5308 14.5387C84.3148 14.477 83.9137 14.6445 83.7726 14.834C81.5729 17.8007 79.3997 20.785 76.9047 24.2013Z" fill="white"/>
<path d="M45.0866 21.1289C42.7326 24.1617 40.6564 26.8948 38.5008 29.5705C38.1041 30.0643 37.2048 30.7255 36.8654 30.5712C36.0631 30.2141 34.8685 29.403 34.8817 28.7947C34.9214 26.8772 34.8553 24.5408 35.8824 23.1391C39.3736 18.3694 43.2351 13.8643 47.1275 9.40768C48.547 7.78107 50.3984 6.51152 52.1528 5.21112C53.6119 4.12672 55.071 4.40002 56.226 5.80181C59.4615 9.73829 61.9742 13.9569 61.3747 19.3613C61.022 22.5351 60.7487 25.7222 60.352 28.8917C60.1492 30.5095 59.0163 31.6159 57.4779 31.1795C55.9747 30.7519 54.0131 30.0687 54.2158 27.9219C54.3878 26.0793 53.8191 25.5679 52.025 25.3784C49.1817 25.0786 46.2371 24.6246 45.091 21.1245L45.0866 21.1289ZM54.2864 11.5324C54.0131 11.4795 53.7398 11.4222 53.4665 11.3693C51.5401 13.4499 49.6137 15.5262 47.6918 17.6068C47.7843 17.8405 47.8769 18.0785 47.9695 18.3121C50.2265 18.5854 52.4834 18.8587 55.1548 19.1849C54.8374 16.399 54.5641 13.9701 54.2864 11.5368V11.5324Z" fill="white"/>
<path d="M117.335 14.8862C121.126 13.6255 124.64 12.691 127.941 11.2671C129.824 10.456 131.124 10.3987 132.27 12.0959C133.266 13.5682 132.826 15.953 131.111 16.9007C129.158 17.9807 126.998 18.686 124.913 19.5148C124.053 19.8586 123.154 20.1011 122.136 20.4405C123.207 22.4682 124.225 24.2447 125.103 26.0829C126.231 28.4413 125.896 30.3103 124.247 31.6592C122.625 32.9861 121.796 32.845 120.857 30.9407C119.729 28.6484 118.698 26.3077 117.604 23.9979C117.3 23.3543 116.934 22.7371 116.273 21.5072C114.937 24.4827 113.769 26.9293 112.742 29.4331C111.671 32.0339 109.753 32.2543 107.752 30.1825C106.086 28.4545 106.192 26.7794 107.144 24.8663C108.435 22.2699 109.559 19.722 109.956 16.6936C110.353 13.674 111.957 10.7822 113.223 7.91693C113.853 6.4931 116.78 6.95155 117.503 8.72803C118.014 9.98876 117.935 11.514 117.992 12.9246C118.014 13.4359 117.662 13.9649 117.34 14.8906L117.335 14.8862Z" fill="white"/>
<path d="M156.519 33.925C155.647 33.8854 154.761 33.9427 153.91 33.784C152.446 33.5151 151.851 32.7084 151.305 31.1126C149.555 26.0124 152.975 22.4991 154.611 18.448C155.484 16.288 156.709 14.2691 157.595 12.1135C158.172 10.7117 158.856 10.0725 160.407 10.6059C162.193 11.2231 164.071 11.6022 165.821 12.3031C170.044 14.0002 172.001 17.8133 171 22.2346C169.59 28.4766 164.331 34.0837 156.519 33.925ZM157.441 27.1894C157.644 27.4054 157.842 27.6258 158.045 27.8418C160.042 26.7442 162.241 25.8934 163.96 24.4651C165.045 23.5615 166.253 21.4676 165.878 20.4978C165.433 19.3429 163.352 18.8183 161.968 18.0425C161.88 17.994 161.699 18.1042 161.47 18.1659C160.143 21.1414 158.79 24.1654 157.441 27.1938V27.1894Z" fill="white"/>
<path d="M186.711 25.9205C185.961 25.1226 185.221 24.4526 184.625 23.6679C183.312 21.9355 181.963 20.212 180.821 18.3693C178.943 15.3365 180.711 12.1098 182.748 10.4038C186.909 6.92139 192.569 6.54229 196.964 9.52219C199.212 11.0474 199.036 15.0236 196.58 16.249C196.078 16.5003 195.249 16.1653 194.588 16.0198C192.265 15.5041 189.968 14.8561 187.627 14.477C186.909 14.3623 186.071 14.953 184.789 15.3894C186.058 16.6854 186.869 17.7125 187.865 18.5016C192.631 22.275 191.361 28.1643 189.016 31.3337C187.619 33.2248 181.601 33.7538 178.935 32.2903C178.423 32.0082 177.934 31.6775 177.458 31.3337C174.681 29.3192 174.548 28.2789 176.753 25.2901C179.851 26.6214 183.008 28.1554 186.711 25.9117V25.9205Z" fill="white"/>
<path d="M135.532 27.4803C136.573 24.9677 137.401 23.0281 138.173 21.0709C139.081 18.7654 139.954 16.4423 140.804 14.1148C141.439 12.3824 143.105 11.514 144.781 12.0959C146.337 12.6381 147.522 14.8246 146.879 16.3145C145.345 19.8587 143.696 23.3587 142.087 26.8676C141.876 27.3305 141.492 27.7404 141.386 28.2165C141.086 29.5919 140.328 30.8394 138.94 30.2795C137.613 29.7461 136.617 28.4061 135.537 27.4759L135.532 27.4803Z" fill="white"/>
<path fill-rule="evenodd" clip-rule="evenodd" d="M303.202 11.2685C301.92 11.2634 300.659 11.2584 299.384 11.2735C299.272 11.2748 299.162 11.2729 299.08 11.2713C299.007 11.378 298.936 11.4809 298.869 11.5786L298.838 11.6229C298.644 11.9049 298.477 12.1461 298.323 12.3871C297.995 12.9001 297.831 13.2494 297.761 13.528C297.605 14.1506 297.45 14.7607 297.297 15.3609C296.34 19.1132 295.481 22.4812 295.304 26.1247C295.242 27.3842 295.07 28.6012 294.9 29.7183C294.87 29.9149 294.84 30.1075 294.811 30.2969C294.668 31.2171 294.538 32.0609 294.452 32.9134C294.319 34.2458 293.131 35.2179 291.799 35.0846C290.466 34.9514 289.494 33.7633 289.627 32.431C289.727 31.436 289.881 30.4398 290.024 29.5182C290.052 29.3379 290.08 29.1605 290.106 28.9865C290.274 27.8882 290.412 26.8812 290.461 25.8884C290.664 21.7173 291.658 17.831 292.612 14.1048C292.762 13.5167 292.912 12.9326 293.057 12.3519C293.316 11.3153 293.81 10.4436 294.239 9.77256C294.441 9.45829 294.652 9.15209 294.835 8.88626L294.877 8.82547C295.08 8.53177 295.249 8.28465 295.398 8.04544C296.17 6.81123 297.424 6.53736 298.029 6.46178C298.366 6.41973 298.675 6.41683 298.887 6.4185C299.044 6.41974 299.12 6.42179 299.176 6.42328C299.228 6.42469 299.262 6.4256 299.327 6.42483C300.639 6.40939 301.968 6.41458 303.273 6.41967C303.916 6.42218 304.552 6.42466 305.179 6.42466C307.166 6.42466 308.78 6.45628 311.01 7.61036C311.065 7.63884 311.103 7.65699 311.166 7.68645C311.223 7.71292 311.298 7.74851 311.423 7.80892C311.622 7.90515 311.903 8.04679 312.191 8.23133C312.675 8.54249 313.743 9.331 313.935 10.7959C314.171 12.5936 313.748 14.4981 312.894 16.0022C311.587 18.3037 309.285 20.163 306.957 21.5019C304.597 22.8599 301.928 23.8446 299.585 24.235C298.265 24.4552 297.015 23.5629 296.795 22.2421C296.575 20.9213 297.467 19.6722 298.788 19.452C300.491 19.1683 302.615 18.4056 304.539 17.2987C306.497 16.1728 307.972 14.8498 308.677 13.6076C308.932 13.1587 309.093 12.6126 309.138 12.0914C309.119 12.0824 309.099 12.0729 309.078 12.0627C308.995 12.0237 308.888 11.9724 308.781 11.9168C307.623 11.3177 306.985 11.2736 305.179 11.2736C304.511 11.2736 303.854 11.271 303.202 11.2685ZM298.63 11.2733L298.632 11.2731C298.626 11.2741 298.625 11.274 298.63 11.2733ZM229.026 6.95126C231.539 6.78491 233.811 7.40374 235.845 8.26762C237.077 8.79115 237.652 10.2146 237.129 11.447C236.605 12.6795 235.182 13.2541 233.949 12.7306C232.336 12.0452 230.848 11.6902 229.347 11.7896C226.796 11.9585 224.578 12.878 223.747 14.298C223.705 14.3696 223.666 14.4368 223.628 14.5006C223.494 14.7284 223.384 14.915 223.28 15.1163L223.28 15.1173C223.317 15.1639 223.359 15.2132 223.404 15.2666C224.018 15.983 224.833 16.5037 225.95 17.2176C226.2 17.3773 226.466 17.5468 226.747 17.7303C227.145 17.9899 227.519 18.2404 227.875 18.4794C229.098 19.2993 230.12 19.9845 231.251 20.4397C231.537 20.5549 231.944 20.7503 232.32 21.099C232.749 21.4972 233.035 21.9969 233.164 22.5441C233.275 23.0107 233.247 23.4166 233.232 23.6012C233.222 23.7132 233.194 23.9485 233.185 24.027C233.183 24.0414 233.182 24.0505 233.182 24.0527C233.169 24.1689 233.156 24.3083 233.142 24.465C233.084 25.1021 233.001 26.0245 232.791 26.8298C232.492 27.9748 231.873 29.2609 230.509 30.1982C228.73 31.4199 226.583 32.004 224.995 32.4361C224.874 32.4689 224.757 32.5008 224.644 32.532C223.254 32.9139 222.018 32.7129 221.201 32.5802C221.14 32.5704 221.082 32.5609 221.026 32.5521C219.704 32.3431 218.801 31.1015 219.01 29.7789C219.219 28.4563 220.46 27.5536 221.783 27.7626C222.795 27.9224 223.047 27.942 223.358 27.8565L223.453 27.8306C225.278 27.3291 226.684 26.9425 227.763 26.2015C227.882 26.1193 227.994 26.0076 228.098 25.6064C228.156 25.3838 228.201 25.1105 228.241 24.7486C228.254 24.6371 228.265 24.5235 228.277 24.4038C227.055 23.7791 225.91 23.0075 224.943 22.3552C224.644 22.1536 224.362 21.9635 224.099 21.7926C223.929 21.6817 223.74 21.5623 223.536 21.4338C222.412 20.725 220.853 19.7421 219.721 18.4201C219.505 18.1685 219.126 17.7143 218.826 17.1584C218.54 16.6312 218.148 15.6907 218.36 14.5668C218.486 13.9007 218.758 13.308 218.967 12.9016C219.143 12.559 219.345 12.2163 219.484 11.981C219.513 11.932 219.54 11.8876 219.562 11.8489C221.661 8.26275 226.051 7.14827 229.026 6.95126ZM228.4 23.1957C228.4 23.1978 228.399 23.2008 228.399 23.2052C228.4 23.1901 228.401 23.1862 228.4 23.1957ZM280.214 7.31025C281.123 7.36018 282.377 7.57297 283.479 8.48978C284.38 9.23888 285.524 10.3119 286.304 11.5697C286.976 12.652 288.192 14.676 287.762 17.0526C287.535 18.3051 287.207 19.8604 286.654 21.3598C286.109 22.8384 285.274 24.4612 283.912 25.6792C280.745 28.5138 276.427 28.8635 273.284 28.8958C271.282 28.9164 269.667 27.7649 268.663 26.5868C267.65 25.3983 266.877 23.7521 266.877 22.0595C266.877 21.1996 266.848 20.3645 266.818 19.4792C266.8 18.9459 266.782 18.3944 266.768 17.8083C266.742 16.6869 266.739 15.5065 266.821 14.3172C266.577 13.5962 266.691 12.8397 267.069 12.2423C267.197 11.5835 267.424 10.7408 267.805 9.95739C268.221 9.10437 269.32 7.34245 271.504 7.34245C272.143 7.34245 272.725 7.58971 273.158 7.99378C274.81 7.43269 276.385 7.34245 278.073 7.34245C278.265 7.34245 278.456 7.33426 278.706 7.3235C278.786 7.32008 278.872 7.31639 278.965 7.31262C279.316 7.29855 279.756 7.2851 280.214 7.31025ZM271.656 14.6887C271.592 15.6382 271.591 16.6384 271.616 17.6968C271.627 18.1685 271.643 18.6704 271.661 19.1851C271.692 20.1369 271.726 21.132 271.726 22.0595C271.726 22.3419 271.902 22.9122 272.353 23.4412C272.813 23.9807 273.177 24.0477 273.234 24.0471C276.312 24.0155 278.961 23.6033 280.679 22.0658C281.206 21.594 281.692 20.8013 282.105 19.6816C282.51 18.5828 282.779 17.3571 282.99 16.1886C283.017 16.043 283.011 15.8242 282.882 15.4628C282.745 15.0813 282.513 14.6571 282.184 14.1262C281.818 13.5361 281.152 12.8625 280.385 12.2235C280.356 12.2096 280.241 12.168 279.948 12.1519C279.733 12.1401 279.486 12.1446 279.16 12.1577C279.104 12.1599 279.042 12.1626 278.977 12.1654C278.71 12.1771 278.38 12.1914 278.073 12.1914C275.969 12.1914 274.802 12.3543 273.354 13.2332C273.17 13.3451 272.993 13.4395 272.863 13.5083C272.83 13.526 272.8 13.5418 272.773 13.5562C272.679 13.6057 272.615 13.6391 272.549 13.6763C272.484 13.7128 272.448 13.7362 272.432 13.7473C272.386 13.7983 272.333 13.8621 272.259 13.9564C272.244 13.9755 272.224 14.0016 272.2 14.0323C272.126 14.1285 272.016 14.2704 271.923 14.384C271.846 14.4768 271.758 14.5801 271.656 14.6887ZM246.744 7.73784C248.082 7.77402 249.138 8.88843 249.102 10.2269C249.076 11.1822 248.938 12.0917 248.711 12.9858C248.284 14.6712 247.989 16.3588 247.745 18.1094C248.016 18.0695 248.281 18.0355 248.538 18.0052C249.077 17.9418 249.548 17.8965 249.987 17.8542C250.674 17.788 251.283 17.7293 251.952 17.6208C252.763 17.4889 253.442 17.2971 254.245 17.0704C254.594 16.9719 254.967 16.8667 255.384 16.757C255.476 15.2314 255.592 13.7202 255.708 12.2241C255.756 11.5968 255.804 10.9722 255.85 10.3503C255.949 9.01493 257.112 8.0126 258.447 8.11152C259.783 8.21043 260.785 9.37313 260.686 10.7085C260.638 11.3595 260.588 12.0034 260.539 12.6419C260.281 15.9944 260.035 19.1963 260.049 22.4772C260.063 25.8096 259.931 29.1244 259.163 32.5794C258.873 33.8866 257.578 34.7107 256.271 34.4202C254.963 34.1298 254.139 32.8347 254.43 31.5276C255.081 28.5971 255.213 25.7043 255.2 22.4972C255.199 22.2779 255.199 22.0589 255.2 21.8401C254.409 22.0559 253.546 22.2743 252.729 22.407C251.933 22.5364 251.02 22.6262 250.21 22.7059C249.808 22.7455 249.43 22.7826 249.105 22.8209C248.334 22.9117 247.663 23.0227 247.064 23.188C246.802 24.7069 246.456 26.1899 246.009 27.7018C246.004 27.7173 245.99 27.7739 245.982 27.9173C245.974 28.0502 245.975 28.1761 245.975 28.3782C245.975 28.4322 245.975 28.4917 245.975 28.5581C245.975 29.8971 244.89 30.9826 243.551 30.9826C242.212 30.9826 241.126 29.8971 241.126 28.5581C241.126 28.5197 241.126 28.4759 241.126 28.4272C241.122 27.9891 241.114 27.1555 241.359 26.3279C241.944 24.3478 242.332 22.4332 242.574 20.3666C242.902 17.5512 243.274 14.6996 244.011 11.7932C244.159 11.2127 244.239 10.6597 244.255 10.0959C244.291 8.75742 245.405 7.70167 246.744 7.73784ZM203.517 28.47C203.842 29.6203 204.976 30.3812 206.192 30.2074C207.518 30.0181 208.439 28.79 208.249 27.4645C208.249 27.4645 208.248 27.4591 208.247 27.4438C208.246 27.4286 208.244 27.4077 208.243 27.3796C208.24 27.3189 208.238 27.2513 208.235 27.15C208.235 27.1404 208.235 27.1286 208.235 27.1147C208.232 26.9671 208.225 26.5906 208.161 26.2492C208.127 26.0646 208.034 25.6329 207.74 25.192C207.378 24.6489 206.712 24.115 205.78 24.0528C205.024 24.0024 204.46 24.295 204.215 24.4399C203.932 24.6073 203.704 24.8035 203.541 24.9557C202.564 25.8715 202.515 27.4058 203.431 28.3827C203.459 28.4126 203.487 28.4417 203.517 28.47Z" fill="white"/>
</svg>
